# xmcd
#
# Track frame offsets: 
#        150
#        16667
#        31747
#        42835
#        56282
#        65335
#        79820
#        90690
#        102995
#        113867
#
# Disc length: 1699 seconds
#
# Revision: 3
# Processed by: cddbd v1.5PL3 Copyright (c) Steve Scherf et al.
# Submitted via: ExactAudioCopy v0.95a4
#
DISCID=6e06a10a
DTITLE=George Jones - Friends In High Places
DYEAR=1991
DGENRE=Country
TTITLE0=A Few Ole Country Boys (Duet With Randy Travis)
TTITLE1=All Fall Down (Duet With Emmylou Harris)
TTITLE2=Fiddle And Guitar Band (Duet With Charlie Daniels)
TTITLE3=All That We've Got Left (Duet With Vern Gosdin)
TTITLE4=Love's Gonna Live Here (Duet With Buck Owens)
TTITLE5=If Could Bottle This Up (Duet With Shelby Lynne)
TTITLE6=I've Been There (Duet With Tim Mensy)
TTITLE7=You Can't Do Wrong And Get By (Duet With Ricky Skaggs)
TTITLE8=It Hurts As Much In Texas (Duet With Ricky Van Shelton)
TTITLE9=Traveller's Prayer (Duet With Sweethearts Of The Rodeo)
EXTD=
EXTT0=
EXTT1=
EXTT2=
EXTT3=
EXTT4=
EXTT5=
EXTT6=
EXTT7=
EXTT8=
EXTT9=
PLAYORDER=
